<svg width="202" height="63" viewBox="0 0 202 63" fill="none" xmlns="http://www.w3.org/2000/svg">
<rect width="202" height="62.5915" rx="11.3803" fill="#33303E"/>
<path d="M68.8287 24.3462C68.7364 24.3462 68.6652 24.321 68.6149 24.2707C68.5645 24.212 68.5394 24.1407 68.5394 24.0569V15.8432C68.5394 15.751 68.5645 15.6797 68.6149 15.6294C68.6652 15.5707 68.7364 15.5414 68.8287 15.5414H71.684C72.5477 15.5414 73.2437 15.6713 73.772 15.9313C74.3003 16.1912 74.686 16.577 74.9292 17.0885C75.1723 17.5916 75.2981 18.2122 75.3065 18.9501C75.3149 19.3274 75.3191 19.6587 75.3191 19.9438C75.3191 20.2289 75.3149 20.5559 75.3065 20.9249C75.2897 21.6964 75.1598 22.3379 74.9166 22.8494C74.6818 23.3525 74.3044 23.7299 73.7845 23.9814C73.273 24.2246 72.5938 24.3462 71.7469 24.3462H68.8287ZM69.7721 23.277H71.684C72.2626 23.277 72.7238 23.1974 73.0676 23.038C73.4114 22.8787 73.6588 22.623 73.8097 22.2708C73.969 21.9186 74.0529 21.4532 74.0613 20.8746C74.078 20.623 74.0864 20.405 74.0864 20.2205C74.0864 20.0276 74.0864 19.839 74.0864 19.6545C74.0864 19.4616 74.078 19.2436 74.0613 19.0004C74.0445 18.187 73.8516 17.5874 73.4827 17.2017C73.1137 16.8076 72.4932 16.6105 71.6211 16.6105H69.7721V23.277ZM79.7272 24.472C79.0899 24.472 78.5574 24.3504 78.1298 24.1072C77.7021 23.864 77.3751 23.5286 77.1486 23.1009C76.9222 22.6649 76.7965 22.1701 76.7713 21.6167C76.7629 21.4741 76.7587 21.2939 76.7587 21.0758C76.7587 20.8494 76.7629 20.6691 76.7713 20.535C76.7965 19.9731 76.9222 19.4784 77.1486 19.0507C77.3834 18.6231 77.7147 18.2876 78.1423 18.0445C78.57 17.8013 79.0983 17.6797 79.7272 17.6797C80.3561 17.6797 80.8844 17.8013 81.3121 18.0445C81.7397 18.2876 82.0668 18.6231 82.2932 19.0507C82.528 19.4784 82.658 19.9731 82.6831 20.535C82.6915 20.6691 82.6957 20.8494 82.6957 21.0758C82.6957 21.2939 82.6915 21.4741 82.6831 21.6167C82.658 22.1701 82.5322 22.6649 82.3058 23.1009C82.0793 23.5286 81.7523 23.864 81.3247 24.1072C80.897 24.3504 80.3645 24.472 79.7272 24.472ZM79.7272 23.5034C80.2471 23.5034 80.6622 23.3399 80.9725 23.0129C81.2827 22.6775 81.4504 22.1911 81.4756 21.5538C81.484 21.428 81.4882 21.2687 81.4882 21.0758C81.4882 20.883 81.484 20.7236 81.4756 20.5979C81.4504 19.9606 81.2827 19.4784 80.9725 19.1513C80.6622 18.8159 80.2471 18.6482 79.7272 18.6482C79.2073 18.6482 78.788 18.8159 78.4694 19.1513C78.1591 19.4784 77.9956 19.9606 77.9788 20.5979C77.9704 20.7236 77.9662 20.883 77.9662 21.0758C77.9662 21.2687 77.9704 21.428 77.9788 21.5538C77.9956 22.1911 78.1591 22.6775 78.4694 23.0129C78.788 23.3399 79.2073 23.5034 79.7272 23.5034ZM85.8346 24.3462C85.7256 24.3462 85.6417 24.321 85.583 24.2707C85.5243 24.212 85.474 24.1324 85.4321 24.0317L83.6459 18.1954C83.6292 18.1535 83.6208 18.1115 83.6208 18.0696C83.6208 17.9941 83.6459 17.9313 83.6963 17.8809C83.755 17.8306 83.8178 17.8055 83.8849 17.8055H84.4384C84.5306 17.8055 84.6019 17.8306 84.6522 17.8809C84.7025 17.9313 84.7361 17.9774 84.7528 18.0193L86.149 22.7613L87.6458 18.0696C87.6626 18.0109 87.6962 17.9522 87.7465 17.8935C87.8052 17.8348 87.889 17.8055 87.998 17.8055H88.4257C88.5347 17.8055 88.6186 17.8348 88.6773 17.8935C88.736 17.9522 88.7695 18.0109 88.7779 18.0696L90.2747 22.7613L91.6709 18.0193C91.6793 17.9774 91.7086 17.9313 91.759 17.8809C91.8093 17.8306 91.8805 17.8055 91.9728 17.8055H92.5262C92.6017 17.8055 92.6646 17.8306 92.7149 17.8809C92.7652 17.9313 92.7904 17.9941 92.7904 18.0696C92.7904 18.1115 92.782 18.1535 92.7652 18.1954L90.9791 24.0317C90.9539 24.1324 90.9078 24.212 90.8407 24.2707C90.782 24.321 90.694 24.3462 90.5766 24.3462H90.086C89.977 24.3462 89.8848 24.321 89.8093 24.2707C89.7422 24.212 89.6961 24.1324 89.671 24.0317L88.2119 19.5287L86.7528 24.0317C86.7192 24.1324 86.6689 24.212 86.6018 24.2707C86.5348 24.321 86.4425 24.3462 86.3251 24.3462H85.8346ZM94.4728 24.3462C94.389 24.3462 94.3177 24.321 94.259 24.2707C94.2087 24.212 94.1835 24.1407 94.1835 24.0569V18.0948C94.1835 18.0109 94.2087 17.9438 94.259 17.8935C94.3177 17.8348 94.389 17.8055 94.4728 17.8055H95.064C95.1479 17.8055 95.2149 17.8348 95.2653 17.8935C95.324 17.9438 95.3533 18.0109 95.3533 18.0948V18.6482C95.5713 18.3631 95.8439 18.1325 96.1709 17.9564C96.5063 17.7719 96.934 17.6797 97.4539 17.6797C97.9989 17.6797 98.4601 17.8013 98.8375 18.0445C99.2232 18.2793 99.5125 18.6105 99.7054 19.0381C99.8983 19.4574 99.9947 19.948 99.9947 20.5098V24.0569C99.9947 24.1407 99.9695 24.212 99.9192 24.2707C99.8689 24.321 99.8018 24.3462 99.718 24.3462H99.0891C99.0052 24.3462 98.9339 24.321 98.8752 24.2707C98.8249 24.212 98.7998 24.1407 98.7998 24.0569V20.5727C98.7998 19.9857 98.6572 19.5287 98.3721 19.2017C98.087 18.8662 97.6677 18.6985 97.1143 18.6985C96.5944 18.6985 96.1751 18.8662 95.8564 19.2017C95.5462 19.5287 95.391 19.9857 95.391 20.5727V24.0569C95.391 24.1407 95.3617 24.212 95.303 24.2707C95.2527 24.321 95.1856 24.3462 95.1017 24.3462H94.4728ZM102.113 24.3462C102.03 24.3462 101.958 24.321 101.9 24.2707C101.849 24.212 101.824 24.1407 101.824 24.0569V15.7049C101.824 15.621 101.849 15.5539 101.9 15.5036C101.958 15.4449 102.03 15.4156 102.113 15.4156H102.705C102.797 15.4156 102.868 15.4449 102.918 15.5036C102.969 15.5539 102.994 15.621 102.994 15.7049V24.0569C102.994 24.1407 102.969 24.212 102.918 24.2707C102.868 24.321 102.797 24.3462 102.705 24.3462H102.113ZM107.549 24.472C106.912 24.472 106.38 24.3504 105.952 24.1072C105.524 23.864 105.197 23.5286 104.971 23.1009C104.744 22.6649 104.619 22.1701 104.593 21.6167C104.585 21.4741 104.581 21.2939 104.581 21.0758C104.581 20.8494 104.585 20.6691 104.593 20.535C104.619 19.9731 104.744 19.4784 104.971 19.0507C105.206 18.6231 105.537 18.2876 105.964 18.0445C106.392 17.8013 106.92 17.6797 107.549 17.6797C108.178 17.6797 108.707 17.8013 109.134 18.0445C109.562 18.2876 109.889 18.6231 110.115 19.0507C110.35 19.4784 110.48 19.9731 110.505 20.535C110.514 20.6691 110.518 20.8494 110.518 21.0758C110.518 21.2939 110.514 21.4741 110.505 21.6167C110.48 22.1701 110.354 22.6649 110.128 23.1009C109.902 23.5286 109.574 23.864 109.147 24.1072C108.719 24.3504 108.187 24.472 107.549 24.472ZM107.549 23.5034C108.069 23.5034 108.484 23.3399 108.795 23.0129C109.105 22.6775 109.273 22.1911 109.298 21.5538C109.306 21.428 109.31 21.2687 109.31 21.0758C109.31 20.883 109.306 20.7236 109.298 20.5979C109.273 19.9606 109.105 19.4784 108.795 19.1513C108.484 18.8159 108.069 18.6482 107.549 18.6482C107.029 18.6482 106.61 18.8159 106.292 19.1513C105.981 19.4784 105.818 19.9606 105.801 20.5979C105.793 20.7236 105.788 20.883 105.788 21.0758C105.788 21.2687 105.793 21.428 105.801 21.5538C105.818 22.1911 105.981 22.6775 106.292 23.0129C106.61 23.3399 107.029 23.5034 107.549 23.5034ZM113.917 24.472C113.497 24.472 113.116 24.3881 112.772 24.2204C112.428 24.0527 112.152 23.8263 111.942 23.5412C111.732 23.2561 111.627 22.9332 111.627 22.5726C111.627 21.994 111.862 21.5328 112.332 21.189C112.801 20.8452 113.414 20.6188 114.168 20.5098L116.042 20.2457V19.8809C116.042 19.4784 115.925 19.1639 115.69 18.9375C115.464 18.7111 115.091 18.5979 114.571 18.5979C114.193 18.5979 113.887 18.6734 113.653 18.8243C113.426 18.9753 113.267 19.1681 113.175 19.4029C113.124 19.5287 113.036 19.5916 112.91 19.5916H112.344C112.252 19.5916 112.181 19.5664 112.131 19.5161C112.089 19.4574 112.068 19.3903 112.068 19.3149C112.068 19.1891 112.114 19.0339 112.206 18.8495C112.307 18.665 112.458 18.4847 112.659 18.3086C112.86 18.1325 113.116 17.9858 113.426 17.8684C113.745 17.7426 114.131 17.6797 114.583 17.6797C115.087 17.6797 115.51 17.7468 115.854 17.8809C116.198 18.0067 116.466 18.1786 116.659 18.3966C116.86 18.6147 117.003 18.862 117.086 19.1388C117.179 19.4155 117.225 19.6964 117.225 19.9815V24.0569C117.225 24.1407 117.195 24.212 117.137 24.2707C117.086 24.321 117.019 24.3462 116.936 24.3462H116.357C116.265 24.3462 116.193 24.321 116.143 24.2707C116.093 24.212 116.068 24.1407 116.068 24.0569V23.516C115.959 23.667 115.812 23.8179 115.627 23.9688C115.443 24.1114 115.212 24.233 114.936 24.3336C114.659 24.4259 114.319 24.472 113.917 24.472ZM114.181 23.5286C114.525 23.5286 114.839 23.4573 115.124 23.3148C115.409 23.1638 115.632 22.9332 115.791 22.623C115.959 22.3127 116.042 21.9228 116.042 21.4532V21.101L114.583 21.3148C113.988 21.3987 113.539 21.5412 113.238 21.7425C112.936 21.9353 112.785 22.1827 112.785 22.4846C112.785 22.7194 112.852 22.9165 112.986 23.0758C113.128 23.2267 113.305 23.3399 113.514 23.4154C113.732 23.4909 113.954 23.5286 114.181 23.5286ZM121.423 24.472C120.962 24.472 120.563 24.3923 120.228 24.233C119.893 24.0653 119.616 23.8431 119.398 23.5663C119.188 23.2812 119.029 22.9584 118.92 22.5978C118.819 22.2372 118.761 21.8557 118.744 21.4532C118.735 21.319 118.731 21.1932 118.731 21.0758C118.731 20.9584 118.735 20.8326 118.744 20.6985C118.761 20.3044 118.819 19.927 118.92 19.5664C119.029 19.2059 119.188 18.883 119.398 18.5979C119.616 18.3128 119.893 18.0906 120.228 17.9312C120.563 17.7635 120.962 17.6797 121.423 17.6797C121.918 17.6797 122.329 17.7677 122.656 17.9438C122.983 18.1199 123.251 18.3379 123.461 18.5979V15.7049C123.461 15.621 123.486 15.5539 123.536 15.5036C123.595 15.4449 123.666 15.4156 123.75 15.4156H124.354C124.438 15.4156 124.505 15.4449 124.555 15.5036C124.614 15.5539 124.643 15.621 124.643 15.7049V24.0569C124.643 24.1407 124.614 24.212 124.555 24.2707C124.505 24.321 124.438 24.3462 124.354 24.3462H123.788C123.695 24.3462 123.624 24.321 123.574 24.2707C123.524 24.212 123.498 24.1407 123.498 24.0569V23.5286C123.289 23.7969 123.016 24.0233 122.681 24.2078C122.345 24.3839 121.926 24.472 121.423 24.472ZM121.687 23.4531C122.106 23.4531 122.442 23.3567 122.693 23.1638C122.945 22.971 123.134 22.7278 123.259 22.4343C123.385 22.1324 123.452 21.8263 123.461 21.5161C123.469 21.3819 123.473 21.2226 123.473 21.0381C123.473 20.8452 123.469 20.6817 123.461 20.5475C123.452 20.254 123.381 19.9647 123.247 19.6796C123.121 19.3945 122.928 19.1597 122.668 18.9753C122.417 18.7908 122.09 18.6985 121.687 18.6985C121.259 18.6985 120.92 18.795 120.668 18.9878C120.417 19.1723 120.236 19.4197 120.127 19.7299C120.018 20.0318 119.955 20.3589 119.939 20.7111C119.93 20.9542 119.93 21.1974 119.939 21.4406C119.955 21.7928 120.018 22.124 120.127 22.4343C120.236 22.7362 120.417 22.9835 120.668 23.1764C120.92 23.3609 121.259 23.4531 121.687 23.4531ZM131.542 24.3462C131.416 24.3462 131.315 24.3168 131.24 24.2581C131.173 24.1994 131.118 24.124 131.077 24.0317L128.75 18.1954C128.733 18.1535 128.724 18.1115 128.724 18.0696C128.724 17.9941 128.75 17.9313 128.8 17.8809C128.85 17.8306 128.913 17.8055 128.989 17.8055H129.592C129.685 17.8055 129.756 17.8306 129.806 17.8809C129.856 17.9313 129.886 17.9774 129.894 18.0193L131.819 22.9752L133.731 18.0193C133.747 17.9774 133.777 17.9313 133.819 17.8809C133.869 17.8306 133.94 17.8055 134.032 17.8055H134.649C134.716 17.8055 134.775 17.8306 134.825 17.8809C134.884 17.9313 134.913 17.9941 134.913 18.0696C134.913 18.1115 134.905 18.1535 134.888 18.1954L132.548 24.0317C132.515 24.124 132.46 24.1994 132.385 24.2581C132.318 24.3168 132.217 24.3462 132.083 24.3462H131.542ZM136.519 24.3462C136.435 24.3462 136.364 24.321 136.305 24.2707C136.255 24.212 136.23 24.1407 136.23 24.0569V18.0948C136.23 18.0109 136.255 17.9438 136.305 17.8935C136.364 17.8348 136.435 17.8055 136.519 17.8055H137.123C137.207 17.8055 137.274 17.8348 137.324 17.8935C137.375 17.9438 137.4 18.0109 137.4 18.0948V24.0569C137.4 24.1407 137.375 24.212 137.324 24.2707C137.274 24.321 137.207 24.3462 137.123 24.3462H136.519ZM136.419 16.5854C136.335 16.5854 136.264 16.5602 136.205 16.5099C136.155 16.4512 136.129 16.3799 136.129 16.2961V15.6168C136.129 15.533 136.155 15.4659 136.205 15.4156C136.264 15.3569 136.335 15.3275 136.419 15.3275H137.211C137.295 15.3275 137.362 15.3569 137.412 15.4156C137.471 15.4659 137.5 15.533 137.5 15.6168V16.2961C137.5 16.3799 137.471 16.4512 137.412 16.5099C137.362 16.5602 137.295 16.5854 137.211 16.5854H136.419ZM141.1 24.472C140.681 24.472 140.299 24.3881 139.956 24.2204C139.612 24.0527 139.335 23.8263 139.125 23.5412C138.916 23.2561 138.811 22.9332 138.811 22.5726C138.811 21.994 139.046 21.5328 139.515 21.189C139.985 20.8452 140.597 20.6188 141.352 20.5098L143.226 20.2457V19.8809C143.226 19.4784 143.108 19.1639 142.874 18.9375C142.647 18.7111 142.274 18.5979 141.754 18.5979C141.377 18.5979 141.071 18.6734 140.836 18.8243C140.61 18.9753 140.45 19.1681 140.358 19.4029C140.308 19.5287 140.22 19.5916 140.094 19.5916H139.528C139.436 19.5916 139.364 19.5664 139.314 19.5161C139.272 19.4574 139.251 19.3903 139.251 19.3149C139.251 19.1891 139.297 19.0339 139.389 18.8495C139.49 18.665 139.641 18.4847 139.842 18.3086C140.044 18.1325 140.299 17.9858 140.61 17.8684C140.928 17.7426 141.314 17.6797 141.767 17.6797C142.27 17.6797 142.693 17.7468 143.037 17.8809C143.381 18.0067 143.649 18.1786 143.842 18.3966C144.043 18.6147 144.186 18.862 144.27 19.1388C144.362 19.4155 144.408 19.6964 144.408 19.9815V24.0569C144.408 24.1407 144.379 24.212 144.32 24.2707C144.27 24.321 144.203 24.3462 144.119 24.3462H143.54C143.448 24.3462 143.377 24.321 143.327 24.2707C143.276 24.212 143.251 24.1407 143.251 24.0569V23.516C143.142 23.667 142.995 23.8179 142.811 23.9688C142.626 24.1114 142.396 24.233 142.119 24.3336C141.842 24.4259 141.503 24.472 141.1 24.472ZM141.364 23.5286C141.708 23.5286 142.023 23.4573 142.308 23.3148C142.593 23.1638 142.815 22.9332 142.974 22.623C143.142 22.3127 143.226 21.9228 143.226 21.4532V21.101L141.767 21.3148C141.171 21.3987 140.723 21.5412 140.421 21.7425C140.119 21.9353 139.968 22.1827 139.968 22.4846C139.968 22.7194 140.035 22.9165 140.169 23.0758C140.312 23.2267 140.488 23.3399 140.698 23.4154C140.916 23.4909 141.138 23.5286 141.364 23.5286Z" fill="white"/>
<path d="M73.4659 45.2851C72.4037 45.2851 71.4869 45.1118 70.7154 44.7652C69.9551 44.4075 69.3626 43.8931 68.9377 43.2223C68.524 42.5403 68.2948 41.7129 68.2501 40.7402C68.2389 40.2594 68.2333 39.7507 68.2333 39.214C68.2333 38.6662 68.2389 38.1462 68.2501 37.6543C68.2948 36.7039 68.5296 35.8989 68.9545 35.2393C69.3793 34.5796 69.9775 34.0765 70.749 33.7299C71.5204 33.3833 72.4261 33.21 73.4659 33.21C74.3044 33.21 75.048 33.3162 75.6964 33.5286C76.3449 33.7299 76.8872 34.0038 77.3232 34.3504C77.7705 34.697 78.1059 35.0771 78.3295 35.4908C78.5643 35.9045 78.6873 36.3126 78.6985 36.7151C78.7097 36.8157 78.6761 36.8996 78.5978 36.9667C78.5308 37.0338 78.4469 37.0673 78.3463 37.0673H75.8977C75.7747 37.0673 75.6797 37.0505 75.6126 37.017C75.5567 36.9723 75.5064 36.9108 75.4616 36.8325C75.3834 36.6648 75.266 36.4915 75.1095 36.3126C74.9641 36.1225 74.7573 35.9604 74.4889 35.8262C74.2318 35.6921 73.8908 35.625 73.4659 35.625C72.8286 35.625 72.3255 35.7927 71.9565 36.1281C71.5987 36.4635 71.403 37.0002 71.3695 37.7382C71.336 38.6997 71.336 39.6724 71.3695 40.6563C71.403 41.439 71.6099 42.0036 71.99 42.3502C72.3702 42.6968 72.8733 42.8701 73.4994 42.8701C73.9243 42.8701 74.2989 42.7974 74.6231 42.6521C74.9585 42.5067 75.2213 42.2831 75.4113 41.9812C75.6014 41.6682 75.6964 41.2713 75.6964 40.7905V40.4718H74.12C73.997 40.4718 73.8908 40.4327 73.8013 40.3544C73.723 40.265 73.6839 40.1588 73.6839 40.0358V38.7947C73.6839 38.6717 73.723 38.5711 73.8013 38.4929C73.8908 38.4034 73.997 38.3587 74.12 38.3587H78.3463C78.4693 38.3587 78.5699 38.4034 78.6482 38.4929C78.7264 38.5711 78.7656 38.6717 78.7656 38.7947V40.7066C78.7656 41.6682 78.5475 42.49 78.1115 43.172C77.6754 43.854 77.0549 44.3795 76.2499 44.7485C75.4561 45.1063 74.5281 45.2851 73.4659 45.2851ZM84.6308 45.2851C83.6917 45.2851 82.8978 45.1342 82.2494 44.8323C81.6121 44.5304 81.1201 44.1 80.7735 43.5409C80.4381 42.9707 80.248 42.2943 80.2033 41.5116C80.1921 41.288 80.1865 41.0365 80.1865 40.7569C80.1865 40.4662 80.1921 40.2147 80.2033 40.0022C80.248 39.2084 80.4493 38.532 80.807 37.9729C81.1648 37.4139 81.6624 36.9835 82.2997 36.6816C82.9482 36.3797 83.7252 36.2288 84.6308 36.2288C85.5477 36.2288 86.3247 36.3797 86.962 36.6816C87.6105 36.9835 88.1136 37.4139 88.4714 37.9729C88.8292 38.532 89.0305 39.2084 89.0752 40.0022C89.0864 40.2147 89.092 40.4662 89.092 40.7569C89.092 41.0365 89.0864 41.288 89.0752 41.5116C89.0305 42.2943 88.8348 42.9707 88.4882 43.5409C88.1528 44.1 87.6608 44.5304 87.0123 44.8323C86.375 45.1342 85.5812 45.2851 84.6308 45.2851ZM84.6308 43.2391C85.134 43.2391 85.4974 43.0881 85.721 42.7862C85.9558 42.4844 86.0899 42.0316 86.1235 41.4278C86.1347 41.2601 86.1402 41.0365 86.1402 40.7569C86.1402 40.4774 86.1347 40.2538 86.1235 40.0861C86.0899 39.4935 85.9558 39.0463 85.721 38.7444C85.4974 38.4314 85.134 38.2748 84.6308 38.2748C84.1389 38.2748 83.7755 38.4314 83.5407 38.7444C83.3059 39.0463 83.1774 39.4935 83.155 40.0861C83.1438 40.2538 83.1382 40.4774 83.1382 40.7569C83.1382 41.0365 83.1438 41.2601 83.155 41.4278C83.1774 42.0316 83.3059 42.4844 83.5407 42.7862C83.7755 43.0881 84.1389 43.2391 84.6308 43.2391ZM94.8671 45.2851C93.9279 45.2851 93.1341 45.1342 92.4856 44.8323C91.8483 44.5304 91.3564 44.1 91.0098 43.5409C90.6743 42.9707 90.4843 42.2943 90.4395 41.5116C90.4284 41.288 90.4228 41.0365 90.4228 40.7569C90.4228 40.4662 90.4284 40.2147 90.4395 40.0022C90.4843 39.2084 90.6855 38.532 91.0433 37.9729C91.4011 37.4139 91.8986 36.9835 92.5359 36.6816C93.1844 36.3797 93.9615 36.2288 94.8671 36.2288C95.7839 36.2288 96.561 36.3797 97.1983 36.6816C97.8468 36.9835 98.3499 37.4139 98.7077 37.9729C99.0655 38.532 99.2667 39.2084 99.3114 40.0022C99.3226 40.2147 99.3282 40.4662 99.3282 40.7569C99.3282 41.0365 99.3226 41.288 99.3114 41.5116C99.2667 42.2943 99.0711 42.9707 98.7245 43.5409C98.389 44.1 97.8971 44.5304 97.2486 44.8323C96.6113 45.1342 95.8175 45.2851 94.8671 45.2851ZM94.8671 43.2391C95.3702 43.2391 95.7336 43.0881 95.9572 42.7862C96.192 42.4844 96.3262 42.0316 96.3597 41.4278C96.3709 41.2601 96.3765 41.0365 96.3765 40.7569C96.3765 40.4774 96.3709 40.2538 96.3597 40.0861C96.3262 39.4935 96.192 39.0463 95.9572 38.7444C95.7336 38.4314 95.3702 38.2748 94.8671 38.2748C94.3752 38.2748 94.0118 38.4314 93.777 38.7444C93.5422 39.0463 93.4136 39.4935 93.3913 40.0861C93.3801 40.2538 93.3745 40.4774 93.3745 40.7569C93.3745 41.0365 93.3801 41.2601 93.3913 41.4278C93.4136 42.0316 93.5422 42.4844 93.777 42.7862C94.0118 43.0881 94.3752 43.2391 94.8671 43.2391ZM105.254 48.8071C104.393 48.8071 103.678 48.6953 103.108 48.4716C102.549 48.248 102.101 47.9797 101.766 47.6666C101.442 47.3536 101.207 47.0405 101.062 46.7275C100.916 46.4256 100.838 46.1852 100.827 46.0063C100.816 45.8833 100.855 45.7827 100.944 45.7044C101.034 45.6262 101.14 45.587 101.263 45.587H103.393C103.493 45.587 103.577 45.6094 103.644 45.6541C103.723 45.71 103.784 45.7995 103.829 45.9224C103.885 46.0454 103.957 46.174 104.047 46.3082C104.147 46.4423 104.282 46.5486 104.449 46.6268C104.628 46.7163 104.869 46.761 105.17 46.761C105.506 46.761 105.785 46.7051 106.009 46.5933C106.233 46.4927 106.4 46.3194 106.512 46.0734C106.624 45.8386 106.68 45.5199 106.68 45.1174V43.9938C106.423 44.2733 106.093 44.5025 105.69 44.6814C105.288 44.8491 104.801 44.9329 104.231 44.9329C103.661 44.9329 103.158 44.8491 102.722 44.6814C102.286 44.5137 101.922 44.2621 101.632 43.9267C101.341 43.5913 101.112 43.1832 100.944 42.7024C100.788 42.2216 100.693 41.6682 100.659 41.0421C100.648 40.7514 100.648 40.4607 100.659 40.17C100.693 39.5662 100.788 39.0239 100.944 38.5432C101.101 38.0624 101.324 37.6487 101.615 37.3021C101.917 36.9555 102.286 36.6928 102.722 36.5139C103.158 36.3238 103.661 36.2288 104.231 36.2288C104.835 36.2288 105.349 36.3462 105.774 36.5809C106.21 36.8046 106.568 37.0897 106.848 37.4363V36.8157C106.848 36.7039 106.887 36.6089 106.965 36.5306C107.043 36.4412 107.144 36.3965 107.267 36.3965H109.196C109.319 36.3965 109.419 36.4412 109.497 36.5306C109.587 36.6089 109.632 36.7039 109.632 36.8157V44.8826C109.632 45.7324 109.458 46.4479 109.112 47.0293C108.765 47.6107 108.268 48.0524 107.619 48.3543C106.971 48.6561 106.182 48.8071 105.254 48.8071ZM105.137 42.7527C105.495 42.7527 105.785 42.6744 106.009 42.5179C106.233 42.3614 106.395 42.1601 106.495 41.9142C106.607 41.6682 106.669 41.4054 106.68 41.1259C106.691 41.0029 106.697 40.8296 106.697 40.606C106.697 40.3824 106.691 40.2147 106.68 40.1029C106.669 39.8122 106.607 39.5438 106.495 39.2979C106.395 39.0519 106.233 38.8562 106.009 38.7109C105.785 38.5543 105.495 38.4761 105.137 38.4761C104.768 38.4761 104.472 38.5543 104.248 38.7109C104.036 38.8674 103.879 39.0798 103.778 39.3482C103.689 39.6165 103.633 39.9128 103.611 40.237C103.6 40.483 103.6 40.7346 103.611 40.9917C103.633 41.316 103.689 41.6123 103.778 41.8806C103.879 42.1489 104.036 42.3614 104.248 42.5179C104.472 42.6744 104.768 42.7527 105.137 42.7527ZM112.026 45.1174C111.903 45.1174 111.803 45.0783 111.724 45C111.646 44.9218 111.607 44.8211 111.607 44.6982V33.6292C111.607 33.5062 111.646 33.4056 111.724 33.3274C111.803 33.2491 111.903 33.21 112.026 33.21H114.005C114.128 33.21 114.229 33.2491 114.307 33.3274C114.385 33.4056 114.425 33.5062 114.425 33.6292V44.6982C114.425 44.8211 114.385 44.9218 114.307 45C114.229 45.0783 114.128 45.1174 114.005 45.1174H112.026ZM120.431 45.2851C119.112 45.2851 118.061 44.9274 117.278 44.2118C116.495 43.4962 116.087 42.4341 116.054 41.0253C116.054 40.947 116.054 40.8464 116.054 40.7234C116.054 40.6004 116.054 40.5054 116.054 40.4383C116.087 39.555 116.283 38.8003 116.641 38.1742C117.01 37.5369 117.513 37.0561 118.15 36.7319C118.798 36.3965 119.553 36.2288 120.414 36.2288C121.398 36.2288 122.209 36.4244 122.846 36.8157C123.494 37.2071 123.981 37.7382 124.305 38.409C124.629 39.0798 124.791 39.8457 124.791 40.7066V41.1091C124.791 41.2321 124.747 41.3328 124.657 41.411C124.579 41.4893 124.484 41.5284 124.372 41.5284H119.005C119.005 41.5396 119.005 41.5564 119.005 41.5787C119.005 41.6011 119.005 41.6235 119.005 41.6458C119.016 41.9701 119.072 42.2663 119.173 42.5347C119.274 42.803 119.43 43.0155 119.643 43.172C119.855 43.3285 120.112 43.4068 120.414 43.4068C120.638 43.4068 120.822 43.3732 120.968 43.3062C121.124 43.2279 121.253 43.144 121.353 43.0546C121.454 42.954 121.532 42.8701 121.588 42.803C121.689 42.6912 121.767 42.6241 121.823 42.6018C121.89 42.5682 121.991 42.5515 122.125 42.5515H124.204C124.316 42.5515 124.406 42.585 124.473 42.6521C124.551 42.708 124.584 42.7918 124.573 42.9036C124.562 43.0937 124.467 43.3229 124.288 43.5913C124.109 43.8596 123.847 44.1279 123.5 44.3963C123.165 44.6534 122.74 44.8659 122.225 45.0336C121.711 45.2013 121.113 45.2851 120.431 45.2851ZM119.005 39.8681H121.84V39.8345C121.84 39.4768 121.784 39.1637 121.672 38.8954C121.571 38.627 121.409 38.4202 121.186 38.2748C120.973 38.1295 120.716 38.0568 120.414 38.0568C120.112 38.0568 119.855 38.1295 119.643 38.2748C119.441 38.4202 119.285 38.627 119.173 38.8954C119.061 39.1637 119.005 39.4768 119.005 39.8345V39.8681ZM130.538 45.1174C130.415 45.1174 130.314 45.0783 130.236 45C130.158 44.9218 130.118 44.8211 130.118 44.6982V33.7969C130.118 33.674 130.158 33.5733 130.236 33.4951C130.314 33.4168 130.415 33.3777 130.538 33.3777H135.234C136.162 33.3777 136.967 33.523 137.649 33.8137C138.342 34.0932 138.879 34.5181 139.259 35.0883C139.65 35.6585 139.846 36.3797 139.846 37.2518C139.846 38.1127 139.65 38.8227 139.259 39.3817C138.879 39.9408 138.342 40.3544 137.649 40.6228C136.967 40.8911 136.162 41.0253 135.234 41.0253H133.238V44.6982C133.238 44.8211 133.193 44.9218 133.104 45C133.025 45.0783 132.925 45.1174 132.802 45.1174H130.538ZM133.188 38.7109H135.15C135.631 38.7109 136.011 38.5879 136.29 38.3419C136.581 38.0959 136.726 37.7214 136.726 37.2182C136.726 36.7934 136.603 36.4356 136.357 36.1449C136.111 35.8542 135.709 35.7088 135.15 35.7088H133.188V38.7109ZM141.687 45.1174C141.564 45.1174 141.463 45.0783 141.385 45C141.307 44.9218 141.268 44.8211 141.268 44.6982V33.6292C141.268 33.5062 141.307 33.4056 141.385 33.3274C141.463 33.2491 141.564 33.21 141.687 33.21H143.666C143.789 33.21 143.889 33.2491 143.968 33.3274C144.046 33.4056 144.085 33.5062 144.085 33.6292V44.6982C144.085 44.8211 144.046 44.9218 143.968 45C143.889 45.0783 143.789 45.1174 143.666 45.1174H141.687ZM148.683 45.2851C148.079 45.2851 147.537 45.1733 147.056 44.9497C146.586 44.7149 146.212 44.4019 145.932 44.0105C145.653 43.6192 145.513 43.1776 145.513 42.6856C145.513 41.8918 145.837 41.2657 146.486 40.8073C147.134 40.3377 147.995 40.019 149.068 39.8513L151.165 39.5327V39.2979C151.165 38.8954 151.081 38.5879 150.913 38.3755C150.745 38.163 150.438 38.0568 149.991 38.0568C149.678 38.0568 149.421 38.1183 149.219 38.2413C149.029 38.3643 148.878 38.532 148.767 38.7444C148.666 38.8898 148.526 38.9624 148.347 38.9624H146.469C146.346 38.9624 146.251 38.9289 146.184 38.8618C146.117 38.7835 146.089 38.6941 146.1 38.5935C146.1 38.3922 146.173 38.163 146.318 37.9059C146.474 37.6375 146.709 37.3748 147.022 37.1176C147.335 36.8605 147.738 36.648 148.23 36.4803C148.722 36.3126 149.314 36.2288 150.008 36.2288C150.734 36.2288 151.355 36.3126 151.869 36.4803C152.383 36.648 152.797 36.8828 153.11 37.1847C153.434 37.4866 153.675 37.8444 153.831 38.2581C153.988 38.6606 154.066 39.1078 154.066 39.5997V44.6982C154.066 44.8211 154.021 44.9218 153.932 45C153.854 45.0783 153.759 45.1174 153.647 45.1174H151.701C151.578 45.1174 151.478 45.0783 151.4 45C151.321 44.9218 151.282 44.8211 151.282 44.6982V44.1112C151.137 44.3236 150.941 44.5193 150.695 44.6982C150.449 44.877 150.159 45.0168 149.823 45.1174C149.499 45.2292 149.119 45.2851 148.683 45.2851ZM149.471 43.3732C149.795 43.3732 150.086 43.3062 150.343 43.172C150.611 43.0266 150.818 42.8086 150.964 42.5179C151.12 42.216 151.198 41.8415 151.198 41.3942V41.1595L149.773 41.411C149.247 41.5005 148.862 41.6402 148.616 41.8303C148.381 42.0092 148.263 42.2216 148.263 42.4676C148.263 42.6577 148.319 42.8198 148.431 42.954C148.543 43.0881 148.688 43.1943 148.867 43.2726C149.046 43.3397 149.247 43.3732 149.471 43.3732ZM157.307 48.3039C157.206 48.3039 157.123 48.2704 157.055 48.2033C156.988 48.1362 156.955 48.0524 156.955 47.9517C156.955 47.9294 156.955 47.8958 156.955 47.8511C156.966 47.8176 156.983 47.7784 157.005 47.7337L158.313 44.5808L155.093 36.9667C155.06 36.8884 155.043 36.8213 155.043 36.7654C155.065 36.6648 155.11 36.5809 155.177 36.5139C155.244 36.4356 155.328 36.3965 155.429 36.3965H157.341C157.486 36.3965 157.592 36.4356 157.659 36.5139C157.738 36.5809 157.788 36.6592 157.81 36.7487L159.739 41.629L161.701 36.7487C161.746 36.6592 161.802 36.5809 161.869 36.5139C161.947 36.4356 162.059 36.3965 162.204 36.3965H164.083C164.183 36.3965 164.267 36.4356 164.334 36.5139C164.412 36.5809 164.452 36.6592 164.452 36.7487C164.452 36.8046 164.435 36.8772 164.401 36.9667L159.655 47.9517C159.621 48.0412 159.566 48.1195 159.487 48.1865C159.409 48.2648 159.297 48.3039 159.152 48.3039H157.307Z" fill="white"/>
<path d="M46.2742 29.1019L35.6301 18.2263L49.1725 26.1485L46.2742 29.1019ZM32.853 17.587C32.2256 17.9212 31.8066 18.5306 31.8066 19.3217V41.0091C31.8066 41.8001 32.2264 42.4095 32.853 42.7437L45.2286 30.1626L32.853 17.587ZM53.3587 28.6741L50.5183 26.9985L47.3499 30.1681L50.5183 33.3378L53.4166 31.6621C54.2847 30.9599 54.2847 29.3771 53.3587 28.6741ZM35.6309 42.1107L49.1733 34.1885L46.275 31.2351L35.6309 42.1107Z" fill="white"/>
</svg>
