<svg width="16" height="16" viewBox="0 0 16 16" fill="none" xmlns="http://www.w3.org/2000/svg">
<path d="M8 0C5.82523 0 5.55419 0.0105013 4.70309 0.0465058C3.84848 0.0885111 3.27041 0.221028 2.76035 0.419052C2.22651 0.620588 1.74305 0.936125 1.34367 1.34367C0.934988 1.74212 0.619276 2.22584 0.419052 2.76035C0.221028 3.27041 0.0885111 3.84848 0.0465058 4.70309C0.008001 5.55469 0 5.82523 0 8C0 10.1748 0.0105013 10.4458 0.0465058 11.2969C0.0885111 12.149 0.221028 12.7296 0.419052 13.2397C0.620588 13.7735 0.936125 14.257 1.34367 14.6563C1.74212 15.065 2.22584 15.3807 2.76035 15.5809C3.27041 15.7765 3.85098 15.9115 4.70309 15.9535C5.55469 15.992 5.82523 16 8 16C10.1748 16 10.4458 15.9895 11.2969 15.9535C12.149 15.9115 12.7296 15.776 13.2397 15.5809C13.7735 15.3794 14.257 15.0639 14.6563 14.6563C15.0655 14.2583 15.3813 13.7745 15.5809 13.2397C15.7765 12.7296 15.9115 12.149 15.9535 11.2969C15.992 10.4453 16 10.1748 16 8C16 5.82523 15.9895 5.55419 15.9535 4.70309C15.9115 3.85098 15.776 3.26741 15.5809 2.76035C15.3794 2.22651 15.0639 1.74305 14.6563 1.34367C14.2583 0.934462 13.7745 0.618667 13.2397 0.419052C12.7296 0.221028 12.149 0.0885111 11.2969 0.0465058C10.4453 0.008001 10.1748 0 8 0ZM8 1.44018C10.1358 1.44018 10.3908 1.45068 11.2349 1.48669C12.0135 1.52319 12.4376 1.65321 12.7191 1.76322C13.0671 1.8917 13.3822 2.09619 13.6412 2.3618C13.9064 2.61974 14.1101 2.93404 14.2373 3.28141C14.3473 3.56295 14.4773 3.987 14.5138 4.7656C14.5498 5.6097 14.5603 5.86523 14.5603 8.0005C14.5603 10.1358 14.5498 10.3913 14.5108 11.2354C14.4688 12.014 14.3388 12.4381 14.2293 12.7196C14.0778 13.0951 13.9087 13.3577 13.6297 13.6417C13.3698 13.9056 13.055 14.1092 12.7076 14.2378C12.4296 14.3478 11.9995 14.4778 11.2179 14.5143C10.3693 14.5503 10.1193 14.5608 7.978 14.5608C5.83673 14.5608 5.5872 14.5503 4.73759 14.5113C3.95899 14.4693 3.52944 14.3393 3.24791 14.2298C2.86786 14.0783 2.60733 13.9092 2.32829 13.6302C2.04676 13.3487 1.86773 13.0806 1.72972 12.7081C1.6177 12.4301 1.48969 12 1.44818 11.2184C1.41968 10.3798 1.40618 10.1198 1.40618 7.9885C1.40618 5.85823 1.41968 5.5977 1.44818 4.74859C1.48969 3.967 1.6177 3.53794 1.72972 3.25891C1.86773 2.87836 2.04726 2.61833 2.32829 2.33679C2.60683 2.05826 2.86786 1.87823 3.24791 1.73722C3.52944 1.6277 3.94849 1.49769 4.73009 1.45868C5.5787 1.42818 5.82873 1.41718 7.967 1.41718L8 1.44018ZM8 3.89399C7.4606 3.89379 6.92646 3.99989 6.42808 4.20621C5.92971 4.41254 5.47687 4.71505 5.09546 5.09646C4.71405 5.47787 4.41154 5.93071 4.20521 6.42908C3.99889 6.92746 3.89279 7.4616 3.89299 8.001C3.89279 8.5404 3.99889 9.07454 4.20521 9.57292C4.41154 10.0713 4.71405 10.5241 5.09546 10.9055C5.47687 11.2869 5.92971 11.5895 6.42808 11.7958C6.92646 12.0021 7.4606 12.1082 8 12.108C8.5394 12.1082 9.07354 12.0021 9.57192 11.7958C10.0703 11.5895 10.5231 11.2869 10.9045 10.9055C11.2859 10.5241 11.5885 10.0713 11.7948 9.57292C12.0011 9.07454 12.1072 8.5404 12.107 8.001C12.1072 7.4616 12.0011 6.92746 11.7948 6.42908C11.5885 5.93071 11.2859 5.47787 10.9045 5.09646C10.5231 4.71505 10.0703 4.41254 9.57192 4.20621C9.07354 3.99989 8.5394 3.89379 8 3.89399ZM8 10.6678C6.52582 10.6678 5.33317 9.47518 5.33317 8.001C5.33317 6.52682 6.52582 5.33417 8 5.33417C9.47418 5.33417 10.6668 6.52682 10.6668 8.001C10.6668 9.47518 9.47418 10.6678 8 10.6678ZM13.2327 3.72997C13.2324 3.98483 13.131 4.22917 12.9506 4.40929C12.7703 4.58941 12.5259 4.69059 12.271 4.69059C12.145 4.69059 12.0202 4.66577 11.9038 4.61754C11.7874 4.56931 11.6816 4.49863 11.5925 4.40952C11.5034 4.32041 11.4327 4.21462 11.3845 4.0982C11.3362 3.98177 11.3114 3.85699 11.3114 3.73097C11.3114 3.60495 11.3362 3.48016 11.3845 3.36374C11.4327 3.24731 11.5034 3.14152 11.5925 3.05241C11.6816 2.9633 11.7874 2.89262 11.9038 2.84439C12.0202 2.79617 12.145 2.77135 12.271 2.77135C12.7996 2.77135 13.2327 3.2014 13.2327 3.72997Z" fill="white"/>
</svg>
