<svg width="48" height="48" viewBox="0 0 48 48" fill="none" xmlns="http://www.w3.org/2000/svg">
<rect width="48" height="48" rx="8" fill="#653DF5"/>
<path opacity="0.7" d="M24.4546 14.5V34.5" stroke="white" stroke-width="2" stroke-linecap="round" stroke-linejoin="round"/>
<path d="M29 18.1364H22.1818C21.3379 18.1364 20.5286 18.4716 19.9319 19.0683C19.3352 19.665 19 20.4743 19 21.3182C19 22.162 19.3352 22.9713 19.9319 23.5681C20.5286 24.1648 21.3379 24.5 22.1818 24.5H26.7273C27.5711 24.5 28.3805 24.8352 28.9772 25.4319C29.5739 26.0286 29.9091 26.8379 29.9091 27.6818C29.9091 28.5257 29.5739 29.335 28.9772 29.9317C28.3805 30.5284 27.5711 30.8636 26.7273 30.8636H19" stroke="white" stroke-width="2" stroke-linecap="round" stroke-linejoin="round"/>
</svg>
