<svg width="20" height="16" viewBox="0 0 20 16" fill="none" xmlns="http://www.w3.org/2000/svg">
<path d="M19.6947 1.9006C18.9704 2.21303 18.1822 2.43788 17.3704 2.52545C18.2133 2.02471 18.8445 1.23362 19.1455 0.300601C18.3546 0.771108 17.4882 1.10104 16.5846 1.27575C16.207 0.872024 15.7502 0.5504 15.2428 0.330915C14.7355 0.11143 14.1883 -0.00121132 13.6355 9.82343e-06C11.3988 9.82343e-06 9.59999 1.81303 9.59999 4.03788C9.59999 4.3503 9.63786 4.66273 9.6994 4.96332C6.35029 4.78817 3.36331 3.18817 1.37751 0.738471C1.01568 1.3565 0.826067 2.06019 0.828402 2.77634C0.828402 4.17752 1.54083 5.41302 2.62722 6.13965C1.98699 6.11444 1.36176 5.93846 0.802366 5.62604V5.67575C0.802366 7.63787 2.18935 9.26391 4.03787 9.63787C3.69079 9.72803 3.33374 9.77415 2.97515 9.77515C2.71242 9.77515 2.4639 9.74912 2.21302 9.71361C2.72426 11.3136 4.21302 12.4757 5.9858 12.5136C4.59881 13.6 2.86154 14.2391 0.975147 14.2391C0.636686 14.2391 0.32426 14.2272 0 14.1894C1.78935 15.3373 3.91242 16 6.19881 16C13.6213 16 17.6828 9.85089 17.6828 4.51362C17.6828 4.33847 17.6828 4.16332 17.671 3.98817C18.4568 3.41303 19.1455 2.7006 19.6947 1.9006Z" fill="white"/>
</svg>
